<svg viewBox="0 0 96 96" xmlns="http://www.w3.org/2000/svg"><path stroke-width="5" stroke="#000" fill="red" d="M48 10c-21 0-38 17-38 38s17 38 38 38 38-17 38-38-17-38-38-38zM25 29.2c-.1-1.1.7-2.1 1.8-2.2l10-1c1.1-.1 2.1.7 2.2 1.8s-.7 2.1-1.8 2.2l-10 1H27a2.05 2.05 0 0 1-2-1.8zM32 48a6.02 6.02 0 0 1-6-6 6.02 6.02 0 0 1 6-6 6.02 6.02 0 0 1 6 6 6.02 6.02 0 0 1-6 6zm28.5 16.2c-.3 1.1-1.3 1.7-2.4 1.5-10.7-2.5-17.8 2.9-17.9 3a1.92 1.92 0 0 1-1.2.4c-.6 0-1.2-.3-1.6-.8-.7-.9-.5-2.1.4-2.8.4-.3 8.8-6.7 21.3-3.7 1 .2 1.7 1.3 1.4 2.4zM64 48a6.02 6.02 0 0 1-6-6 6.02 6.02 0 0 1 6-6 6.02 6.02 0 0 1 6 6 6.02 6.02 0 0 1-6 6zm5-17h-.2l-10-1c-1.1-.1-1.9-1.1-1.8-2.2s1.1-1.9 2.2-1.8l10 1c1.1.1 1.9 1.1 1.8 2.2a2.05 2.05 0 0 1-2 1.8z"/></svg>