<svg xmlns="http://www.w3.org/2000/svg" viewBox="0 0 856 625"><path d="M0 594l25-30c17 14 35 23 57 23 17 0 27-6 27-18h0c0-11-6-16-38-24-39-10-63-21-63-59h0c0-35 27-58 66-58 28 0 52 9 71 24l-21 32c-17-12-34-19-50-19s-25 8-25 17h0c0 13 9 17 42 25 38 11 60 24 60 58h0c0 38-29 59-70 59-29 0-58-10-81-30m167-45h0c0-42 32-76 76-76 28 0 45 9 59 24l-26 28c-9-10-18-16-33-16-21 0-35 18-35 39v1c0 22 14 40 37 40 14 0 23-6 33-15l25 24c-15 16-31 27-60 27-44 0-76-34-76-76m144 0h0c0-42 34-76 79-76s79 33 79 75v1c0 42-34 76-79 76-46 0-79-34-79-76m117 0h0c0-22-15-41-38-41-24 0-38 19-38 40v1c0 21 15 40 38 40 24 0 38-18 38-40m57 21v-95h42v82c0 20 9 30 25 30 15 0 26-10 26-30v-82h41v147h-41v-21c-10 12-22 23-43 23-32 0-50-20-50-54m158 10V438h42v37h34v36h-34v62c0 10 4 14 13 14 7 0 14-2 20-5v33c-8 6-18 9-32 9-26 0-43-10-43-44m94 22l18-27c16 11 32 17 46 17 12 0 17-4 17-11h0c0-9-14-12-30-17-20-6-44-16-44-44h0c0-30 24-47 54-47 18 0 39 7 54 17l-15 29c-15-9-29-14-40-14-10 0-15 5-15 10v1c0 8 14 12 30 17 20 7 44 17 44 44h0c0 32-25 47-56 47-21 0-44-7-63-22M328 174c11 18 17 38 19 52h22c-2-17-9-42-23-64-18-27-40-41-66-41h0c-19 0-37 9-49 24-13 16-18 37-13 56l21-4c-3-13 0-28 9-38 8-11 19-16 32-16h0c23 0 38 17 48 31m155 150c-8-12-14-26-17-39h-22c2 10 7 28 18 46-7 12-20 24-34 31-14-7-27-19-34-31 11-18 16-36 17-46h-21c-3 13-9 27-18 39l-3 5 2 6c9 19 30 39 53 49l4 2 4-2c22-10 43-30 53-49l2-6zm45-150c-12 18-18 39-19 53h-22c2-17 9-43 23-65 18-26 40-40 65-40h0c20 0 38 8 50 23 13 16 18 37 13 57l-21-5c3-13 0-28-9-38-8-10-20-16-32-16h-1c-22 0-37 17-47 31m-137 53h21c-3-25-12-47-21-66s-17-37-17-55c1-21 12-42 32-57 4-2 13-10 22-18 9 8 19 16 22 18 20 15 32 36 32 57 0 18-8 36-17 55s-18 41-21 66h22c2-21 11-39 19-57 9-21 18-42 18-64 0-28-15-55-40-74-3-2-18-14-27-23l-8-9-8 9c-8 9-24 21-27 23-25 19-40 46-40 74 0 22 9 42 19 64 8 18 16 36 19 57m-85 39h245v-20H306zm-1 0"/></svg>